<?xml version="1.0" standalone="no"?>
<!DOCTYPE svg PUBLIC "-//W3C//DTD SVG 20010904//EN"
 "http://www.w3.org/TR/2001/REC-SVG-20010904/DTD/svg10.dtd">
<svg version="1.0" xmlns="http://www.w3.org/2000/svg"
 width="1031.000000pt" height="1031.000000pt" viewBox="0 0 1031.000000 1031.000000"
 preserveAspectRatio="xMidYMid meet">
<metadata>
Created by potrace 1.14, written by Peter Selinger 2001-2017
</metadata>
<g transform="translate(0.000000,1031.000000) scale(0.100000,-0.100000)"
fill="#000000" stroke="none">
<path d="M4812 10300 c-1136 -84 -2176 -512 -3032 -1249 -135 -117 -414 -396
-530 -531 -572 -665 -973 -1483 -1145 -2335 -78 -385 -99 -608 -99 -1030 0
-422 21 -645 99 -1030 174 -860 572 -1668 1154 -2345 117 -135 396 -414 531
-530 665 -572 1484 -973 2335 -1145 385 -78 608 -99 1030 -99 422 0 645 21
1030 99 860 174 1668 572 2345 1154 135 117 414 396 530 531 572 665 973 1484
1145 2335 78 385 99 608 99 1030 0 422 -21 645 -99 1030 -174 860 -572 1668
-1154 2345 -117 135 -396 414 -531 530 -735 632 -1668 1059 -2610 1194 -321
46 -811 67 -1098 46z m48 -3775 l0 -565 -428 -2 -427 -3 4 -1352 c2 -788 0
-1353 -5 -1353 -18 1 -1115 278 -1121 283 -3 3 -6 549 -7 1214 l-1 1208 -395
-4 c-217 -2 -410 -1 -427 3 l-33 8 0 557 c0 307 3 561 7 564 3 4 642 7 1420 7
l1413 0 0 -565z m1402 -148 l3 -712 433 -3 432 -2 0 715 0 715 565 0 565 0 0
-1920 c0 -1056 -2 -1920 -5 -1920 -5 0 -1008 250 -1087 271 l-38 10 -2 642 -3
642 -35 4 c-19 1 -212 0 -427 -4 l-393 -7 0 -709 0 -709 -572 0 -571 0 6 1848
c4 1016 7 1848 7 1850 0 1 252 2 560 2 l560 -1 2 -712z"/>
</g>
</svg>
